# xmcd
#
# Track frame offsets: 
#        150
#        11263
#        27922
#        47564
#        62720
#        73583
#        88917
#        112320
#        127123
#        158404
#        191204
#        216456
#        235201
#        256580
#        272592
#        291396
#        315439
#
# Disc length: 4284 seconds
#
# Revision: 0
# Processed by: cddbd v1.5.2PL0 Copyright (c) Steve Scherf et al.
# Submitted via: ExactAudioCopy v0.99pb4
#
DISCID=f810ba11
DTITLE=Various Artist - Get Funky And Organised
DYEAR=1900
DGENRE=Funk
TTITLE0=John Schroeder/Papa's Got A Brand New Bag
TTITLE1=Georgie Fame/Papa's Got A Brand New Bag
TTITLE2=Clarence Wheeler and The Enforcers/Right On
TTITLE3=Jimmy McGriff/Aint It Funky
TTITLE4=Mohawks/Heavy Bopper
TTITLE5=Keith Mansfield/Boogaloo
TTITLE6=Jack McDuff/Duffin Around
TTITLE7=Eddie Fisher/2 x 2
TTITLE8=Willis Jackson/Nuthern Like Thuthern
TTITLE9=Boogaloo Joe/Sweetback
TTITLE10=Pucho/Got Myself A Good Man
TTITLE11=Spanky Wilson/Kissing My Love
TTITLE12=Incredible Bongo Band/Apache
TTITLE13=Nico Gomez/Lupita
TTITLE14=Houston Person/Soul Dance
TTITLE15=Big Swingface/The Beat Goes On
TTITLE16=Grasshopper/The Peaceful Path
EXTD=
EXTT0=
EXTT1=
EXTT2=
EXTT3=
EXTT4=
EXTT5=
EXTT6=
EXTT7=
EXTT8=
EXTT9=
EXTT10=
EXTT11=
EXTT12=
EXTT13=
EXTT14=
EXTT15=
EXTT16=
PLAYORDER=
